<svg xmlns="http://www.w3.org/2000/svg" width="256" height="256"><path fill-opacity=".016" d="M0 128.004v128.004l128.25-.254 128.25-.254.254-127.75L257.008 0H0v128.004m.485.496c0 70.4.119 99.053.265 63.672.146-35.38.146-92.98 0-128C.604 29.153.485 58.1.485 128.5" fill="#1976D2" fill-rule="evenodd"/><path fill-opacity=".099" d="M104.5 1.974C63.902 10.118 30.34 36.453 12.581 74.1c-4.335 9.19-8.793 23.157-10.102 31.65L1.824 110h6.569c6.348 0 6.59-.092 7.192-2.75C19.12 91.661 23.08 80.995 29.23 70.5c16.32-27.849 41.661-46.733 73.43-54.716 7.562-1.901 11.442-2.214 26.84-2.168 16.099.049 19.021.328 27.67 2.641 20.301 5.431 37.184 15.017 52.175 29.624 17.036 16.601 27.445 35.908 33.084 61.369.588 2.654.834 2.75 7.09 2.75 3.565 0 6.481-.421 6.481-.935 0-2.646-3.339-16.216-5.64-22.923-12.525-36.507-43.658-67.521-80.038-79.734-19.504-6.547-46.293-8.352-65.822-4.434m9.5 34.48c-34.335 5.644-63.766 31.098-73.885 63.901-3.041 9.858-3.135 9.645 4.248 9.645h6.363l3.25-9.085c6.542-18.289 21.346-35.049 38.352-43.42 12.936-6.367 22.497-8.613 36.672-8.613 34.3 0 63.116 20.319 74.958 52.856l2.825 7.762 5.239.307c7.91.463 8.074.294 6.315-6.495-2.074-8.012-8.42-21.278-13.707-28.656-5.123-7.149-17.003-18.838-23.957-23.572-18.375-12.509-44.588-18.261-66.673-14.63m7.78 50.576c-6.018 1.014-14.628 4.95-19.64 8.977-4.06 3.263-10.712 11.754-9.869 12.598.365.364 56.586.708 71.527.437 2.295-.042 2.294-.049-.691-4.387-6.095-8.858-15.206-14.934-25.743-17.166-7.526-1.595-8.646-1.627-15.584-.459M10.502 112.518C3.993 116.037.063 122.286.022 129.185c-.081 13.589 14.123 21.026 24.901 13.037 8.928-6.617 9.423-22.295.901-28.541-3.624-2.656-11.46-3.251-15.322-1.163m21.711.37c-.315.82-.106 1.648.465 1.838 3.525 1.175 3.893 2.694 3.52 14.524-.292 9.285-.667 11.75-1.784 11.75-.778 0-1.414.9-1.414 2 0 1.753.667 2 5.393 2 3.995 0 5.55-.41 6-1.582.88-2.294.809-2.418-1.393-2.418-1.862 0-2-.667-2-9.666v-9.666l4.163 5.916c2.29 3.254 6.153 8.978 8.585 12.721 2.431 3.743 4.945 6.632 5.586 6.42.782-.259 1.359-5.268 1.75-15.198.482-12.215.877-15.025 2.25-16.03.916-.669 1.666-1.867 1.666-2.66 0-1.965-10.735-1.962-11.491.003-.673 1.75.242 3.16 2.05 3.16 1.149 0 1.441 1.848 1.441 9.135 0 10.611.738 10.963-9.702-4.635-5.983-8.94-6.051-9-10.268-9.052-2.877-.036-4.429.428-4.817 1.44m36.221-.971C67.124 113.173 68.208 116 70 116c1.871 0 1.999.662 1.986 10.25-.015 11.35-.59 14.75-2.496 14.75-1.068 0-2.49 2.045-2.49 3.582 0 .23 5.391.418 11.981.418 11.975 0 11.981-.001 12.5-2.5l1.038-5c.751-3.615-2.972-3.418-4.722.25-1.12 2.346-2.01 2.795-6.055 3.055L77 141.11V130h5.5c5.205 0 5.5-.135 5.5-2.509 0-2.452-.123-2.494-5.5-1.862-6.09.716-6.27.472-4.865-6.555.604-3.017.841-3.161 4.75-2.875 3.657.268 4.15.607 4.431 3.051.593 5.152 3.746 2.863 4.684-3.4l.697-4.649-11.664.149c-6.415.083-11.86.338-12.099.567m26.999 0C94.125 113.175 95.209 116 97 116c1.883 0 2 .667 2 11.365 0 9.95.256 11.69 2.054 13.976 2.582 3.283 8.205 4.864 13.224 3.719 7.66-1.748 9.722-5.896 9.722-19.559 0-7.579.311-9.683 1.5-10.139.825-.317 1.5-1.356 1.5-2.309 0-1.474-.861-1.694-5.75-1.471-4.949.226-5.794.552-6.07 2.34-.236 1.538.219 2.078 1.75 2.078 1.962 0 2.07.549 2.07 10.5 0 9.167-.254 10.754-2 12.5-2.529 2.529-7.081 2.566-10.139.082-2.211-1.795-2.357-2.568-2.299-12.126.051-8.377.365-10.43 1.75-11.442.929-.679 1.688-1.922 1.688-2.763 0-1.219-1.23-1.501-6.067-1.39-3.336.076-6.261.327-6.5.556m35.05-.067c-1.152 1.153-.32 3.067 1.599 3.676 1.981.629 2.065 1.236 1.75 12.639-.281 10.153-.599 12.128-2.082 12.957-.963.537-1.75 1.63-1.75 2.428 0 1.106 1.425 1.45 6 1.45 5.333 0 6-.222 6-2 0-1.333-.667-2-2-2-1.87 0-2-.667-2-10.244v-10.244l8.639 12.994c4.751 7.147 8.79 13.171 8.975 13.387.186.215 1.024-.177 1.862-.873 1.234-1.024 1.524-3.956 1.524-15.402 0-13.054.153-14.233 2-15.386 1.1-.687 2-1.883 2-2.659 0-1.09-1.306-1.332-5.75-1.065-4.912.294-5.797.647-6.07 2.418-.236 1.534.22 2.074 1.75 2.074 1.94 0 2.07.566 2.07 9 0 4.95-.219 9-.487 9s-3.83-5.003-7.916-11.117c-7.34-10.985-7.477-11.12-11.53-11.317-2.256-.109-4.318.019-4.584.284m37.034.99c-.682 1.747.231 3.16 2.042 3.16 1.174 0 1.441 2.214 1.441 11.965 0 10.941-.171 12.056-2 13.035-1.1.589-2.001 1.842-2.002 2.785-.002 1.488.923 1.671 7 1.383 6.024-.286 7.002-.59 7.002-2.181 0-1.155-.843-1.968-2.25-2.167-1.821-.259-2.239-.94-2.194-3.57.365-21.407.367-21.417 2.444-21.96 1.1-.288 2-1.313 2-2.277 0-1.504-.924-1.737-6.48-1.634-4.399.082-6.648.551-7.003 1.461m28.554-.088c-8.849 4.512-12.542 15.513-8.211 24.459 5.605 11.578 22.124 10.716 28.019-1.461 7.155-14.779-5.992-30.043-19.808-22.998m27.412-.902c-1.135 1.135-.333 3.063 1.517 3.65 1.85.587 2 1.513 2 12.345 0 10.473-.211 11.891-2 13.423-3.307 2.832-2.342 3.732 4 3.732 5.333 0 6-.222 6-2 0-1.333-.667-2-2-2-1.7 0-1.987-.637-1.912-4.25.048-2.338.392-6.5.764-9.25l.677-5 8.235 12.219C251.527 150.691 252 150.551 252 131.401c0-13.301.151-14.478 2-15.633 1.1-.687 2-1.996 2-2.908 0-2.479-11.346-1.937-11.837.565-.21 1.07.449 1.922 1.75 2.263 1.922.502 2.087 1.261 2.087 9.595 0 4.978-.315 8.735-.7 8.35-.385-.385-3.93-5.462-7.878-11.282-7.074-10.429-7.239-10.585-11.317-10.783-2.277-.11-4.356.017-4.622.282M9.521 118.388C2.336 125.574 7.076 141 16.469 141c6.637 0 10.692-6.998 9.069-15.65-1.549-8.257-10.731-12.248-16.017-6.962m187.229-1.308c-4.159 2.422-6.216 12.205-3.625 17.236 2.425 4.708 5.114 6.684 9.097 6.684 6.812 0 10.724-6.443 9.241-15.22-1.298-7.682-8.822-12.131-14.713-8.7M2.614 151.25c.311 1.787 1.683 7.3 3.049 12.25 10.711 38.811 43.405 73.131 82.015 86.092 25.818 8.666 56.826 8.666 82.644 0 40.126-13.47 73.36-49.515 83.067-90.092 3.085-12.895 3.591-11.5-4.17-11.5H242.4l-1.287 6.25c-.707 3.438-2.843 10.3-4.747 15.25-13.263 34.496-42.498 60.426-79.196 70.243-8.649 2.313-11.571 2.592-27.67 2.641-19.908.06-27.996-1.329-43.34-7.44-33.928-13.513-61.045-44.69-68.882-79.194l-1.76-7.75H2.05l.564 3.25m35.914 0c1.479 6.991 7.211 19.647 12.568 27.75 10.217 15.453 26.891 29.156 43.431 35.691 23.478 9.278 52.961 8.159 74.77-2.837 21.524-10.852 38.072-28.965 46.359-50.742 1.803-4.737 3.293-9.624 3.311-10.862.031-2.103-.386-2.25-6.385-2.25h-6.419l-2.095 6.25c-5.471 16.325-19.631 33.747-34.604 42.575-33.771 19.912-77.871 12.123-102.483-18.1-5.547-6.811-13.517-21.734-14.55-27.243L51.777 148H37.841l.687 3.25m55.165-.166c2.996 5.115 10.972 11.864 17.79 15.055 12.847 6.012 28.46 4.754 40.461-3.26 5.199-3.472 13.056-11.923 13.056-14.043 0-.46-16.45-.836-36.557-.836H91.887l1.806 3.084" fill="#1976D2" fill-rule="evenodd"/><path fill-opacity=".288" d="M109 1.49C97.519 3.456 89.321 5.792 80 9.753 39.502 26.962 11.029 62.054 3.092 104.539L2.258 109h12.427l2.654-10.127c3.048-11.631 9.395-25.654 16.348-36.118 6.172-9.29 20.778-23.896 30.068-30.068 39.999-26.576 90.491-26.576 130.49 0 9.29 6.172 23.896 20.778 30.068 30.068 6.953 10.464 13.3 24.487 16.348 36.118L243.315 109h12.427l-.883-4.727c-4.501-24.091-17.781-49.252-35.146-66.586-19.88-19.845-44.911-32.328-73.405-36.607-9.399-1.412-27.859-1.209-37.308.41m1 35.936c-25.186 5.59-45.049 19.361-59.128 40.994-5.12 7.866-10.261 19.546-12.25 27.83l-.66 2.75H50.839l1.705-5.25c7.75-23.87 26.699-43.17 50.249-51.18 21.292-7.241 42.866-5.482 63.668 5.192 7.33 3.762 10.85 6.443 18.622 14.188 8.306 8.278 10.265 10.915 14.704 19.8 2.817 5.638 5.418 11.825 5.779 13.75l.657 3.5h13l-.688-3.667c-1.07-5.699-6.01-17.416-10.739-25.467-5.698-9.701-20.961-24.964-30.662-30.662-9.408-5.526-19.846-9.65-29.434-11.631-9.041-1.867-29.589-1.948-37.7-.147m8.734 50.662c-8.65 2.038-18.577 8.916-23.778 16.475L91.904 109H165.051l-1.447-2.75c-1.817-3.454-9.966-11.268-14.661-14.06-7.545-4.486-20.888-6.298-30.209-4.102M12.256 112.117c-12.789 3.694-16.068 24.149-4.957 30.923 3.784 2.308 10.637 2.568 14.501.549 6.948-3.63 11.225-12.313 9.802-19.899-.919-4.895-5.827-10.381-10.434-11.66-4.226-1.174-4.557-1.17-8.912.087M79.58 112c-6.773.31-11.06.926-11.291 1.623-.204.617.548 1.363 1.67 1.656 1.913.5 2.041 1.294 2.041 12.619 0 11.002-.179 12.197-2 13.334-1.1.687-2 1.816-2 2.509 0 .938 2.896 1.259 11.375 1.259H90.75l.625-3.125c.954-4.771.754-6.875-.656-6.875-.704 0-1.79 1.35-2.413 3-1.054 2.792-1.485 3-6.219 3H77v-10.895l5.241-.303c4.05-.233 5.316-.699 5.573-2.052.285-1.497-.473-1.75-5.241-1.75H77v-10h5c4.667 0 5 .167 5 2.5 0 1.789.54 2.5 1.899 2.5 1.537 0 1.969-.876 2.264-4.587.201-2.522.134-4.66-.149-4.75-.283-.09-5.428.062-11.434.337m117.92.496c-6.319 2.225-11.473 9.799-11.494 16.888-.012 3.883 2.375 9.607 5.091 12.209 3.345 3.205 11.128 4.385 15.896 2.41 6.94-2.875 11.813-12.271 10.474-20.196-.857-5.077-5.568-10.463-10.299-11.777-4.56-1.267-4.777-1.256-9.668.466m-164.5.887c0 .761.951 1.633 2.114 1.937 2.06.538 2.096.873 1.385 12.866-.523 8.829-1.121 12.54-2.114 13.114-.762.44-1.385 1.452-1.385 2.25 0 1.091 1.362 1.45 5.5 1.45 4.833 0 5.5-.242 5.5-2 0-1.333-.667-2-2-2-1.872 0-1.998-.655-1.964-10.25l.036-10.25 2.434 2.979c1.339 1.639 5.47 7.576 9.179 13.194C60.414 149.891 61 149.527 61 130.886c0-12.786.156-13.967 2-15.118 3.715-2.32 2.37-3.768-3.5-3.768-4.222 0-5.5.348-5.5 1.5 0 .825.675 1.5 1.5 1.5 1.232 0 1.496 1.74 1.478 9.75l-.022 9.75-1.97-2.5c-1.083-1.375-4.56-6.43-7.727-11.234-5.734-8.696-5.778-8.735-10.009-8.75-2.959-.011-4.25.404-4.25 1.367m62.667-.716c-1.179 1.178-.717 2.087 1.333 2.623 1.842.481 2 1.364 2 11.166C99 141.628 101.088 145 110.484 145c5.633 0 9.73-1.98 11.321-5.472.685-1.503 1.195-7.122 1.195-13.169 0-9.705.159-10.588 2-11.069 1.1-.288 2-1.146 2-1.907 0-1.024-1.558-1.383-6-1.383s-6 .359-6 1.383c0 .761.9 1.619 2 1.907 1.846.483 2 1.364 2 11.461 0 12.405-.923 14.261-7.079 14.234-6.501-.029-7.921-2.787-7.921-15.384 0-8.507.215-9.646 2-10.601 1.1-.589 2-1.505 2-2.035 0-1.076-11.283-1.348-12.333-.298m34.333.716c0 .761.9 1.619 2 1.907 1.856.485 2 1.364 2 12.209 0 10.357-.239 11.988-2.098 14.343l-2.099 2.658 4.722.31c2.596.17 5.341.072 6.098-.219 2.125-.815 1.643-3.591-.623-3.591-1.869 0-2-.667-2-10.2 0-5.849.371-9.795.87-9.25.479.523 4.548 6.477 9.042 13.233 4.495 6.756 8.56 12.043 9.035 11.75.474-.293 1.19-7.32 1.59-15.615.546-11.32 1.068-15.213 2.095-15.607.752-.289 1.368-1.175 1.368-1.97 0-1.113-1.189-1.376-5.171-1.143-5.278.308-7.551 2.118-3.87 3.081 1.879.491 2.041 1.309 2.041 10.327 0 5.606-.372 9.388-.869 8.844-.478-.522-4.088-5.788-8.022-11.7L138.955 112h-4.477c-3.146 0-4.478.412-4.478 1.383m37.638.117c-.391 1.02.054 1.5 1.393 1.5 1.857 0 1.969.735 1.969 12.933 0 12.054-.136 12.975-2 13.567-1.1.349-2 1.3-2 2.113 0 1.188 1.326 1.42 6.74 1.183 5.483-.241 6.802-.622 7.073-2.046.252-1.32-.336-1.75-2.392-1.75h-2.726l.61-12.136c.526-10.466.891-12.398 2.653-14.039 1.123-1.047 2.042-2.11 2.042-2.364s-2.877-.461-6.393-.461c-4.76 0-6.54.383-6.969 1.5m55.821-.433c-.363.586-.502 1.149-.309 1.25 4.537 2.377 4.369 1.776 3.984 14.296-.269 8.772-.728 12.097-1.75 12.687-.761.44-1.384 1.452-1.384 2.25 0 1.091 1.362 1.45 5.5 1.45 4.833 0 5.5-.242 5.5-2 0-1.333-.667-2-2-2-1.867 0-2-.667-2-10 0-5.5.195-10 .432-10 .238 0 4.373 5.855 9.189 13.011 5.84 8.677 9.09 12.678 9.757 12.011.551-.551 1.198-7.545 1.438-15.544.389-12.932.645-14.655 2.311-15.546 3.37-1.804 1.974-2.932-3.627-2.932-5.61 0-6.992 1.189-3.959 3.406 1.233.902 1.482 2.953 1.25 10.297l-.291 9.171-7.5-11.358-7.5-11.358-4.191-.079c-2.305-.043-4.488.401-4.85.988M9.783 117.75c-6.052 6.938-4.565 19.772 2.64 22.782 6.346 2.652 12.308-1.105 13.282-8.37C27.006 122.461 22.934 116 15.519 116c-2.76 0-4.734.602-5.736 1.75m184.806 1.327c-2.095 2.49-2.589 4.12-2.589 8.549 0 6.805 2.147 11.12 6.421 12.905 6.991 2.921 13.579-2.534 13.579-11.245 0-8.017-4.198-13.286-10.585-13.286-3.504 0-4.685.533-6.826 3.077M3 150.083c0 3.008 3.721 17.134 6.115 23.215 8.191 20.804 21.199 39.026 37.657 52.752 51.244 42.735 125.719 39.404 172.941-7.737 14.45-14.424 27.618-37.067 32.749-56.313 3.747-14.054 3.761-14-3.423-14h-5.962l-1.081 4.25c-6.216 24.43-15.429 41.173-31.501 57.245-10.308 10.307-19.438 16.71-32.968 23.119-35.891 17.002-79.556 13.432-113.772-9.301-9.236-6.136-23.886-20.763-29.97-29.922-8.32-12.524-13.62-24.789-17.781-41.141L14.923 148H8.961C3.587 148 3 148.205 3 150.083m35.659-1.333c-.253.412.761 4.385 2.254 8.827 10.034 29.869 34.023 52.18 65.154 60.594 10.862 2.935 32.555 3.194 43.296.516 31.752-7.916 56.932-30.682 67.144-60.709 1.371-4.03 2.493-7.924 2.493-8.653 0-.96-1.74-1.325-6.317-1.325h-6.318l-1.774 5.75c-3.904 12.654-14.094 27.49-24.981 36.369-7.955 6.487-21.947 13.37-32.567 16.019-7.182 1.791-10.421 2.032-21.5 1.599-17.855-.697-29.305-4.485-43.043-14.242-12.732-9.041-23.1-22.475-28.677-37.158L50.656 148h-5.769c-3.173 0-5.976.338-6.228.75m54.341.193c0 .519 2.516 3.661 5.591 6.982 12.439 13.436 31.675 17.181 48.235 9.393 5.901-2.775 17.174-13.175 17.174-15.843 0-1.272-4.884-1.475-35.5-1.475-21.569 0-35.5.37-35.5.943" fill="#1976D2" fill-rule="evenodd"/><path fill-opacity=".578" d="M119 .588C87.788 4.147 63.064 15.01 42.458 34.219 23.881 51.537 11.246 72.774 5.13 96.956 2.008 109.305 1.91 109 9 109c5.215 0 6-.247 6-1.888 0-3.68 5.188-19.718 9.03-27.917 13.497-28.802 38.48-51.033 68.746-61.173C147.959-.466 209.041 25.998 233.97 79.195c3.842 8.199 9.03 24.237 9.03 27.917 0 1.645.787 1.888 6.114 1.888h6.113l-.701-4.75c-1.07-7.255-7.039-24.867-11.268-33.25-6.388-12.66-13.263-22.037-24.241-33.063-18.566-18.646-40.792-30.546-66.095-35.388C145.074 1.048 125.097-.107 119 .588m-6.658 36.824c-25.785 4.922-47.28 19.373-61.315 41.221-5.149 8.017-10.29 19.864-11.55 26.617l-.7 3.75h6.032c5.997 0 6.036-.019 6.723-3.25.38-1.787 2.205-6.553 4.056-10.59 10.899-23.774 31.973-40.566 57.369-45.711 9.979-2.022 27.244-1.561 36.543.977 25.483 6.954 47.931 28.2 55.548 52.574l1.719 5.5 6.116.298c3.482.169 6.117-.12 6.117-.671 0-.532-1.389-4.941-3.088-9.797C205.4 68.265 182.755 47.342 151.5 38.814c-9.281-2.533-29.453-3.255-39.158-1.402M8.99 114.25c-5.351 3.642-7.314 7.081-7.789 13.648-.532 7.361 2.275 13.151 7.604 15.68 7.21 3.421 16.954-.335 20.554-7.923 2.07-4.361 2.116-12.835.092-16.749-3.494-6.758-13.896-9.124-20.461-4.656m24.01-.867c0 .761.9 1.619 2 1.907 1.861.486 2 1.364 2 12.608 0 11.002-.179 12.197-2 13.334-2.397 1.497-2.74 4.266-.418 3.375.87-.334 3.345-.607 5.5-.607S44 143.55 44 143s-.9-1-2-1c-1.879 0-2-.667-2-11 0-6.05.172-11 .381-11 .21 0 4.348 5.85 9.195 13 4.848 7.15 9.125 13 9.506 13 .38 0 1.02-6.784 1.422-15.076.529-10.939 1.088-15.214 2.036-15.578.718-.275 1.551-1.141 1.851-1.923.431-1.124-.604-1.423-4.922-1.423-3.99 0-5.469.374-5.469 1.383 0 .761.9 1.619 2 1.907 1.825.477 2 1.364 2 10.116 0 5.277-.346 9.594-.769 9.594-.422 0-4.264-5.175-8.538-11.5-7.718-11.424-7.795-11.5-11.731-11.5-2.707 0-3.962.438-3.962 1.383m36 .117c0 .825.675 1.5 1.5 1.5 1.257 0 1.5 2.122 1.5 13.094 0 12.252-.128 13.127-2 13.616-1.1.288-1.999 1.033-1.999 1.657.002 1.129 21.296 1.735 22.276.633.245-.275.738-2.412 1.096-4.75.743-4.854-.59-5.652-2.568-1.536-1.485 3.089-6.261 4.89-10.287 3.88-2.488-.625-2.601-.937-2.317-6.375l.299-5.719 5.422-.5c7.591-.7 8.058-3 .609-3h-5.636l.303-5.25c.302-5.248.303-5.25 3.928-5.553 3.998-.334 7.169 1.872 6.225 4.332-.341.887.023 1.471.917 1.471.86 0 1.744-1.312 2.107-3.125C91.587 111.815 91.914 112 80 112c-9.111 0-11 .258-11 1.5m27 0c0 .825.628 1.5 1.395 1.5 1.095 0 1.471 2.569 1.75 11.977.338 11.412.481 12.103 3.016 14.639 5.471 5.471 17.294 3.577 19.864-3.182.536-1.41.975-7.26.975-12.999 0-8.609.262-10.435 1.5-10.435.825 0 1.5-.699 1.5-1.552 0-1.242-1.034-1.492-5.171-1.25-3.015.176-5.344.823-5.584 1.552-.236.717.431 1.25 1.566 1.25 1.769 0 2.051.939 2.683 8.93.857 10.821-.306 15.335-4.384 17.024-3.548 1.47-7.812.43-9.633-2.348-1.63-2.488-1.912-5.181-1.66-15.856.145-6.141.494-7.75 1.683-7.75.825 0 1.5-.675 1.5-1.5 0-1.152-1.278-1.5-5.5-1.5-4.222 0-5.5.348-5.5 1.5m34.499-.498c-.341.551.572 1.455 2.028 2.008l2.647 1.007-.688 12.241c-.485 8.619-1.103 12.571-2.088 13.352-2.548 2.023-1.457 2.905 3.587 2.897 3.058-.004 5.173-.49 5.469-1.257.288-.744-.326-1.25-1.517-1.25-2.829 0-3.067-1.308-2.203-12.147l.766-9.62 8.5 12.812c4.675 7.046 9.063 12.843 9.75 12.883.944.054 1.25-3.34 1.25-13.846 0-14.706.363-17.082 2.607-17.082.766 0 1.393-.675 1.393-1.5 0-1.133-1.222-1.5-5-1.5s-5 .367-5 1.5c0 .825.675 1.5 1.5 1.5 1.234 0 1.5 1.784 1.5 10.059 0 5.532-.391 9.817-.869 9.522-.478-.295-4.171-5.497-8.206-11.559-7.158-10.752-7.43-11.022-11.073-11.022-2.053 0-4.013.451-4.353 1.002m37.501.381c0 .761.9 1.619 2 1.907 1.861.486 2 1.364 2 12.608 0 11.002-.179 12.197-2 13.334-3.786 2.364-2.388 3.713 3.25 3.136 7.104-.727 8.942-1.462 5.75-2.299-2.451-.643-2.506-.871-2.791-11.612-.326-12.273.15-15.457 2.31-15.457.815 0 1.481-.675 1.481-1.5 0-1.167-1.333-1.5-6-1.5-4.442 0-6 .359-6 1.383m26.922.891c-5.506 3.71-7.922 8.175-7.922 14.639 0 6.913 2.401 11.76 7.062 14.26 4.525 2.427 8.569 2.304 13.972-.423 7.907-3.991 11.254-14.337 7.526-23.26-2.998-7.177-13.711-9.884-20.638-5.216m29.078-.891c0 .761.963 1.636 2.14 1.943 2.074.543 2.124.93 1.636 12.781-.402 9.759-.833 12.461-2.14 13.417-.9.658-1.636 1.6-1.636 2.094 0 1.418 9.898 1.07 10.454-.368.286-.74-.319-1.25-1.485-1.25-1.841 0-1.969-.726-1.969-11.2 0-6.416.372-10.794.87-10.25.479.523 4.538 6.463 9.02 13.2 4.482 6.738 8.534 12.25 9.004 12.25.47 0 1.052-6.582 1.294-14.627.368-12.231.716-14.83 2.126-15.861 3.083-2.254 1.897-3.512-3.314-3.512-3.778 0-5 .367-5 1.5 0 .825.645 1.5 1.434 1.5 1.128 0 1.501 2.131 1.75 10.002.174 5.501.036 10.001-.305 10-.342-.001-4.141-5.177-8.444-11.502-7.674-11.283-7.894-11.5-11.628-11.5-2.575 0-3.807.448-3.807 1.383m-212.89 2.963c-3.545 2.038-5.035 5.49-5.075 11.756-.076 12.152 10.145 18.202 17.445 10.325 6.485-6.997 2.319-21.767-6.48-22.975-2.01-.276-4.517.104-5.89.894m186.131-.021c-7.402 4.111-8.056 17.287-1.145 23.102 4.341 3.653 8.285 3.392 12.504-.827 3.064-3.064 3.4-3.958 3.4-9.05 0-6.703-1.946-10.954-5.967-13.033-3.52-1.82-5.771-1.869-8.792-.192M3 149.891c0 .489 1.095 5.104 2.433 10.255C16.53 202.855 48.515 236.361 91 249.781c13.487 4.26 22.552 5.595 38 5.595s24.513-1.335 38-5.595c42.764-13.508 74.946-47.542 85.894-90.835 1.158-4.58 2.106-8.691 2.106-9.136 0-.446-2.61-.81-5.8-.81h-5.799l-2.697 9.595c-12.41 44.153-49.533 77.153-94.401 83.916-57.865 8.722-113.06-27.181-129.007-83.916L14.599 149H8.8c-3.19 0-5.8.401-5.8.891m36-.056c0 2.028 4.459 14.131 7.232 19.632 19.94 39.55 64.896 59.448 107.463 47.565 30.115-8.407 55.148-33.084 63.688-62.782l1.509-5.25H206.5l-1.957 6.125c-5.997 18.767-23.111 37.315-42.703 46.281-11.368 5.202-19.649 6.95-32.84 6.933-12.701-.016-21.161-1.65-31.895-6.16-19.309-8.112-36.491-26.083-43.615-45.618L50.732 149h-5.866c-3.226 0-5.866.376-5.866.835" fill="#1976D2" fill-rule="evenodd"/></svg>