<svg xmlns="http://www.w3.org/2000/svg" width="256" height="256"><path fill-opacity=".016" d="M0 128.004v128.004l128.25-.254 128.25-.254.254-127.75L257.008 0H0v128.004m.485.496c0 70.4.119 99.053.265 63.672.146-35.38.146-92.98 0-128C.604 29.153.485 58.1.485 128.5" fill="#1976D2" fill-rule="evenodd"/><path fill-opacity=".247" d="M104.77 3.055C59.003 12.32 22.236 45.115 8.121 89.262 6.405 94.631 5 99.244 5 99.512c0 .268 2.25.488 5 .488s5-.45 5-1 .461-.887 1.024-.75c.563.138 2.172-3.125 3.577-7.25 13.25-38.908 46.289-68.287 86.026-76.494 11.573-2.391 34.747-3.551 39.274-1.967 1.979.693 7.199 2.034 11.599 2.981 37.372 8.042 69.85 37.667 82.471 75.226l2.942 8.754H252.5l-.228-3.822c-.3-5.012-6.32-20.124-12.023-30.178-18.653-32.886-51.847-56.537-88.262-62.887-11.84-2.065-35.951-1.839-47.217.442m12.98-.393c.688.278 1.813.278 2.5 0 .688-.277.125-.504-1.25-.504s-1.937.227-1.25.504m-4.937 1.021c.721.289 1.584.253 1.916-.079.332-.332-.258-.568-1.312-.525-1.165.048-1.402.285-.604.604m-5 1c.721.289 1.584.253 1.916-.079.332-.332-.258-.568-1.312-.525-1.165.048-1.402.285-.604.604M97.5 7.464c-3.862 1.768-2.066 1.794 2.5.036 1.925-.741 2.825-1.362 2-1.379-.825-.017-2.85.587-4.5 1.343M91 10c-.825.533-1.05.969-.5.969s1.675-.436 2.5-.969c.825-.533 1.05-.969.5-.969s-1.675.436-2.5.969m-9.25 4.064C78.588 15.696 76 17.256 76 17.53c0 .447 11.9-5.218 12.917-6.149 1.309-1.198-2.172.105-7.167 2.683m69.5-1.375c.963.252 2.537.252 3.5 0 .963-.251.175-.457-1.75-.457s-2.713.206-1.75.457m7.019 1.004c.973.254 2.323.237 3-.037.677-.274-.119-.481-1.769-.461-1.65.02-2.204.244-1.231.498m5.544.99c.721.289 1.584.253 1.916-.079.332-.332-.258-.568-1.312-.525-1.165.048-1.402.285-.604.604m4 1c.721.289 1.584.253 1.916-.079.332-.332-.258-.568-1.312-.525-1.165.048-1.402.285-.604.604m8.107 2.387c2.981 1.058 5.593 1.751 5.804 1.539.467-.466-8.642-3.639-10.152-3.536-.59.04 1.367.939 4.348 1.997M67.489 22.649C60.109 27.558 40.93 46.079 37.095 52c-2.049 3.164-1.955 3.116.981-.5 6.596-8.124 23.626-24.136 30.174-28.37 5.851-3.783 7.554-5.13 6.489-5.13-.143 0-3.406 2.092-7.25 4.649M185 21.5c1.375.786 2.95 1.429 3.5 1.429.55 0-.125-.643-1.5-1.429s-2.95-1.429-3.5-1.429c-.55 0 .125.643 1.5 1.429m9.5 4.226c.55.525 2.8 1.965 5 3.2s3.1 1.498 2 .584c-2.234-1.857-8.569-5.282-7-3.784M110 32.97c-12.208 2.563-23.376 7.191-33.6 13.927-9.819 6.469-22.363 18.879-28.019 27.722-4.092 6.396-9.97 18.553-10.942 22.631-.65 2.727-.613 2.75 4.453 2.75 4.192 0 5.111-.314 5.123-1.75.013-1.464.167-1.51.943-.284.745 1.178 1.135.932 1.985-1.25l2.122-5.453c2.246-5.77 12.152-19.237 18.559-25.23 11.534-10.789 23.863-17.503 38.65-21.046C119.256 42.596 142 41.109 142 42.848c0 .633 1.238 1.156 2.75 1.161 4.943.016 21.891 6.56 29.872 11.534 14.094 8.785 27.453 24.359 33.344 38.873l2.305 5.679 5.864-.212c3.226-.116 5.865-.552 5.865-.968 0-.416-1.521-4.363-3.38-8.771-6.281-14.893-17.689-29.569-30.62-39.391-8.45-6.418-24.403-14.135-34.5-16.689-11.587-2.93-32.272-3.45-43.5-1.094m94-1.714c0 .21 3.675 3.275 8.167 6.812 8.878 6.991 17.923 16.909 24.008 26.325 4.752 7.351 5.928 8.541 2.763 2.796-3.483-6.323-14.162-19.338-20.509-24.994C212.946 37.307 204 30.526 204 31.256m-81.25 1.406c.688.278 1.813.278 2.5 0 .688-.277.125-.504-1.25-.504s-1.937.227-1.25.504m-4.937 1.021c.721.289 1.584.253 1.916-.079.332-.332-.258-.568-1.312-.525-1.165.048-1.402.285-.604.604m-4 1c.721.289 1.584.253 1.916-.079.332-.332-.258-.568-1.312-.525-1.165.048-1.402.285-.604.604M103 38c-.825.533-1.05.969-.5.969s1.675-.436 2.5-.969c.825-.533 1.05-.969.5-.969s-1.675.436-2.5.969m-8.999 4.067c-3.024 1.666-5.949 3.499-6.5 4.073-.801.835 11.889-5.609 13.416-6.812 1.774-1.398-2.433.268-6.916 2.739m50.761.64c1.244.239 3.044.23 4-.02s-.062-.446-2.262-.435c-2.2.011-2.982.216-1.738.455m8.507.986c.973.254 2.323.237 3-.037.677-.274-.119-.481-1.769-.461-1.65.02-2.204.244-1.231.498m5.544.99c.721.289 1.584.253 1.916-.079.332-.332-.258-.568-1.312-.525-1.165.048-1.402.285-.604.604M165 46.5c4.566 1.758 6.362 1.732 2.5-.036-1.65-.756-3.675-1.36-4.5-1.343-.825.017.075.638 2 1.379m-83 3.17C71.613 57.529 58.673 72.33 54.611 81c-.902 1.925-1.071 2.643-.375 1.595a4137.43 4137.43 0 0 0 5.924-9C64.563 66.891 75.264 55.736 83 49.786c1.925-1.481 3.275-2.708 3-2.728-.275-.02-2.075 1.156-4 2.612m91-.17c1.375.786 2.95 1.429 3.5 1.429.55 0-.125-.643-1.5-1.429s-2.95-1.429-3.5-1.429c-.55 0 .125.643 1.5 1.429m5.12 1.884c1.253 1.393 12.091 7.575 11.021 6.286-.609-.733-3.477-2.603-6.374-4.155s-4.988-2.511-4.647-2.131M30.763 61.25c-2.153 3.304-5.147 9.414-4.042 8.25 1.306-1.375 6.465-10.5 5.936-10.5-.235 0-1.087 1.013-1.894 2.25m167.344 4.802c4.184 4.096 9.31 10.036 11.392 13.198 4.025 6.115 5.827 7.823 2.808 2.661-3.132-5.355-11.768-15.258-16.883-19.359-3.508-2.812-2.736-1.806 2.683 3.5m-86.428-2.014C98.905 67.772 87.061 75.41 78.97 85.131 74.648 90.325 70 97.75 70 99.46c0 .297 26.775.54 59.5.54s59.5-.38 59.5-.845c0-.465-1.84-3.692-4.09-7.173-7.871-12.178-20.776-22.197-34.91-27.103-9.348-3.244-28.648-3.668-38.321-.841m131.016 11.449c.915 1.919 1.841 3.31 2.058 3.093.457-.457-2.578-6.58-3.263-6.58-.251 0 .291 1.569 1.205 3.487M22.679 76.546c-2.349 4.927-2.018 5.765.437 1.11 1.116-2.115 1.852-4.022 1.636-4.238-.217-.216-1.149 1.192-2.073 3.128M246.031 82.5c0 .55.436 1.675.969 2.5.533.825.969 1.05.969.5s-.436-1.675-.969-2.5c-.533-.825-.969-1.05-.969-.5m-30.336 6.987c.915 1.919 1.841 3.31 2.058 3.093.457-.457-2.578-6.58-3.263-6.58-.251 0 .291 1.569 1.205 3.487m-165.533.056c-1.675 3.677-1.355 4.462.456 1.119.846-1.562 1.351-3.026 1.123-3.255-.229-.228-.939.733-1.579 2.136m-34.083 6.04c.048 1.165.285 1.402.604.605.289-.722.253-1.585-.079-1.917-.332-.332-.568.258-.525 1.312M218.031 94.5c0 .55.436 1.675.969 2.5.533.825.969 1.05.969.5s-.436-1.675-.969-2.5c-.533-.825-.969-1.05-.969-.5m33.048 3.083c.048 1.165.285 1.402.604.605.289-.722.253-1.585-.079-1.917-.332-.332-.568.258-.525 1.312M10.475 113.029c-1.664.502-4.56 2.495-6.435 4.43-2.927 3.019-3.464 4.337-3.786 9.28-.283 4.329.1 6.625 1.54 9.236C3.976 139.932 10.801 144 15.256 144c4.315 0 9.488-2.798 12.518-6.77 5.331-6.989 2.924-18.749-4.637-22.659-3.803-1.967-9.107-2.612-12.662-1.542m187.545 1.221c-6.423 3.282-8.52 6.666-8.52 13.75 0 9.513 5.794 15.5 15 15.5 17.739 0 21.483-24.707 4.601-30.361-4.736-1.587-6.061-1.454-11.081 1.111M40 126c0 10.889-.244 13-1.5 13-.848 0-1.5.896-1.5 2.06 0 1.77.53 2.017 3.75 1.75l3.75-.31.5-9.863.5-9.863 7 10.103c5.346 7.716 7.532 10.106 9.25 10.113C63.968 143 64 142.818 64 130c0-10.889.244-13 1.5-13 .833 0 1.5-.889 1.5-2 0-1.607-.667-2-3.393-2-4.28 0-4.607.868-4.607 12.217v9.053l-4.077-5.885a1055.6 1055.6 0 0 1-7.25-10.617c-2.198-3.279-3.864-4.738-5.423-4.75C40.031 113 40 113.18 40 126m33-11.035c0 1.124.658 2.035 1.47 2.035 1.202 0 1.521 2.325 1.75 12.75l.28 12.75h18l.313-3.25c.262-2.718-.024-3.25-1.75-3.25-1.167 0-2.063.651-2.063 1.5 0 1.133-1.222 1.5-5 1.5h-5v-9h5c4.333 0 5-.267 5-2s-.667-2-5-2h-5v-9h3.893c2.538 0 4.093.522 4.469 1.5.316.825 1.518 1.5 2.67 1.5 1.761 0 2.045-.518 1.781-3.25l-.313-3.25-10.25-.285c-9.735-.271-10.25-.183-10.25 1.75m28 .035c0 1.111.667 2 1.5 2 1.233 0 1.5 1.776 1.5 9.984 0 9.508.133 10.133 2.782 13.099 5.292 5.922 16.575 4.37 19.243-2.649.536-1.41.975-6.585.975-11.499 0-7.276.279-8.935 1.5-8.935.848 0 1.5-.896 1.5-2.06 0-1.77-.53-2.017-3.75-1.75l-3.75.31-.286 10.961C121.89 136.882 120.9 139 115.416 139c-5.5 0-6.416-1.854-6.416-12.99 0-12.194-.289-13.01-4.607-13.01-2.726 0-3.393.393-3.393 2m37.667-1.333c-.367.366-.667 6.216-.667 13 0 7.555-.387 12.333-1 12.333-.55 0-1 .9-1 2 0 1.615.667 2 3.466 2h3.466l.284-10.549.284-10.549 7.375 10.549c5.85 8.367 7.866 10.549 9.75 10.549 2.375 0 2.375-.001 2.375-12.64 0-10.878.244-12.82 1.75-13.932 2.4-1.774.413-3.689-3.378-3.256l-2.872.328-.5 10.224-.5 10.225-7.336-10.475c-6.809-9.723-9.385-11.92-11.497-9.807M172 115c0 1.111.667 2 1.5 2 1.242 0 1.5 1.889 1.5 11s-.258 11-1.5 11c-.833 0-1.5.889-1.5 2 0 1.758.667 2 5.5 2 4.272 0 5.5-.342 5.5-1.531 0-.843-.675-1.791-1.5-2.107-1.206-.463-1.5-2.709-1.5-11.469 0-9.016.258-10.893 1.5-10.893.833 0 1.5-.889 1.5-2 0-1.758-.667-2-5.5-2s-5.5.242-5.5 2m57 10.893c0 10.538-.274 12.998-1.5 13.469-.825.316-1.5 1.292-1.5 2.167 0 1.228.857 1.521 3.75 1.281l3.75-.31.286-10.382.287-10.383 7.495 10.633c5.196 7.37 8.099 10.632 9.463 10.632 1.854 0 1.969-.733 1.969-12.531 0-10.217.277-12.638 1.5-13.107.825-.317 1.5-1.456 1.5-2.532 0-1.605-.584-1.9-3.25-1.643l-3.25.313-.285 10.837-.284 10.838-5.046-7.338a3662.414 3662.414 0 0 1-7.598-11.087c-1.742-2.558-3.305-3.75-4.92-3.75C229 113 229 113 229 125.893M9.775 118.559C6.152 120.525 5 122.927 5 128.511c0 9.631 10.008 14.028 17.234 7.571 2.89-2.582 3.266-3.513 3.266-8.082 0-4.569-.376-5.5-3.266-8.082-3.683-3.291-8.026-3.765-12.459-1.359M197.4 120.4c-2.64 2.64-3.4 4.226-3.4 7.096 0 6.974 4.482 11.529 11.297 11.482 10.023-.07 13.536-15.91 4.558-20.553-4.717-2.439-8.667-1.813-12.455 1.975M5.625 158.75c.365 1.512 2 6.575 3.634 11.25 15.148 43.356 53.94 76.084 98.741 83.306 13.577 2.188 37.729 1.65 49-1.091 33.118-8.056 59.612-26.128 77.984-53.194 8.206-12.09 19.096-37.763 17.634-41.574-.454-1.183-1.812-1.48-5.706-1.25l-5.11.303-2.29 7.239c-7.069 22.342-23.513 44.736-42.903 58.426-13.189 9.312-33.008 17.758-45.583 19.426-2.764.367-5.026 1.126-5.026 1.687 0 1.518-29.964.191-39-1.727-41.873-8.89-74.575-37.8-87.542-77.389-1.846-5.637-3.006-7.905-3.579-7-.633.998-.852 1.021-.864.088-.01-.832-1.694-1.25-5.034-1.25-4.97 0-5.013.027-4.356 2.75M37 157.07c0 2.888 6.992 17.282 12.117 24.944 13.108 19.597 34.378 34.448 57.506 40.153 11.694 2.884 34.199 2.82 45.734-.13 17.219-4.404 32.8-13.192 45.211-25.499 8.36-8.29 14.111-16.53 19.424-27.832 6.022-12.81 6.049-12.342-.727-12.575l-5.765-.198-3.709 7.918c-5.124 10.937-14.392 22.861-23.405 30.112-9.146 7.357-23.075 14.303-33.886 16.896-7.77 1.863-7.885 1.934-4 2.442 2.2.287-2.963.31-11.472.05-22.798-.696-35.305-3.936-49.516-12.828-14.534-9.095-24.66-20.436-32.062-35.909-2.967-6.203-4.397-8.317-4.734-7-.422 1.646-.499 1.663-.6.136-.094-1.418-1.065-1.75-5.116-1.75-2.883 0-5 .453-5 1.07m33-.225c0 .465 1.824 3.668 4.054 7.118 22.139 34.252 70.456 40.218 100.001 12.346 6.172-5.823 12.945-14.539 14.553-18.73.548-1.428-5.105-1.579-59.001-1.579-32.784 0-59.607.38-59.607.845m181.079 1.738c.048 1.165.285 1.402.604.605.289-.722.253-1.585-.079-1.917-.332-.332-.568.258-.525 1.312m-32.917 1.96c-1.675 3.677-1.355 4.462.456 1.119.846-1.562 1.351-3.026 1.123-3.255-.229-.228-.939.733-1.579 2.136m-202.083.04c.048 1.165.285 1.402.604.605.289-.722.253-1.585-.079-1.917-.332-.332-.568.258-.525 1.312m31.952-.083c0 .55.436 1.675.969 2.5.533.825.969 1.05.969.5s-.436-1.675-.969-2.5c-.533-.825-.969-1.05-.969-.5M50 165.362c0 1.125 5.697 11.96 7.433 14.138.877 1.1-.287-1.6-2.587-6-4.509-8.627-4.846-9.194-4.846-8.138m197.624 3.177c-.965 2.514-.681 3.163.498 1.136.584-1.004.851-2.036.593-2.293-.257-.258-.749.263-1.091 1.157m-37.31 6.711c-7.531 11.452-18.482 21.248-31.814 28.459-6.664 3.605-6.829 4.514-.21 1.154 10.605-5.383 20.05-13.087 27.814-22.69 5.139-6.356 9.607-13.173 8.634-13.173-.173 0-2.163 2.813-4.424 6.25M20.031 172.5c0 .55.436 1.675.969 2.5.533.825.969 1.05.969.5s-.436-1.675-.969-2.5c-.533-.825-.969-1.05-.969-.5m225.593 1.039c-.965 2.514-.681 3.163.498 1.136.584-1.004.851-2.036.593-2.293-.257-.258-.749.263-1.091 1.157M22 177.358C22 178.445 28.967 192 29.525 192c.275 0-1.133-3.262-3.13-7.25-3.745-7.481-4.395-8.574-4.395-7.392M61.14 185c5.242 8.067 20.859 22.363 29.068 26.608 4.85 2.507 3.03.823-3.393-3.141-6.025-3.719-19.674-16.429-25.201-23.467l-2.749-3.5 2.275 3.5m178.74.25a171.027 171.027 0 0 1-2.641 4.75c-1.391 2.398-1.382 2.419.232.5 1.993-2.37 4.79-7.5 4.09-7.5-.27 0-1.026 1.012-1.681 2.25M31.547 195.5c5.615 9.912 22.621 28.483 31.453 34.348 3.157 2.096 3.108 1.999-.5-.991-11.795-9.773-18.653-17.31-30.826-33.872-1.813-2.466-1.814-2.463-.127.515m199.658 2.75c-5.001 6.505-9.943 11.709-17.705 18.645-4.57 4.084-4.928 4.566-1.5 2.026 5.664-4.199 16.47-15.262 20.813-21.31 4.52-6.294 3.37-5.837-1.608.639M169 208c-.825.533-1.05.969-.5.969s1.675-.436 2.5-.969c.825-.533 1.05-.969.5-.969s-1.675.436-2.5.969m-7.187 2.683c.721.289 1.584.253 1.916-.079.332-.332-.258-.568-1.312-.525-1.165.048-1.402.285-.604.604m-4 1c.721.289 1.584.253 1.916-.079.332-.332-.258-.568-1.312-.525-1.165.048-1.402.285-.604.604m-6.063.979c.688.278 1.813.278 2.5 0 .688-.277.125-.504-1.25-.504s-1.937.227-1.25.504M101 217c.825.533 1.95.969 2.5.969s.325-.436-.5-.969c-.825-.533-1.95-.969-2.5-.969s-.325.436.5.969m6.5 2.536c1.65.756 3.675 1.36 4.5 1.343.825-.017-.075-.638-2-1.379-4.566-1.758-6.362-1.732-2.5.036m7.313 2.147c.721.289 1.584.253 1.916-.079.332-.332-.258-.568-1.312-.525-1.165.048-1.402.285-.604.604m4 1c.721.289 1.584.253 1.916-.079.332-.332-.258-.568-1.312-.525-1.165.048-1.402.285-.604.604m85.09 1.321c-1.429 1.067-6.379 3.97-11 6.451-4.622 2.482-8.006 4.519-7.522 4.528 1.444.028 16.241-8.102 19.294-10.6 3.427-2.803 2.851-3.086-.772-.379m-80.153-.342c.688.278 1.813.278 2.5 0 .688-.277.125-.504-1.25-.504s-1.937.227-1.25.504M71.5 235.49c2.234 1.857 8.569 5.282 7 3.784-.55-.525-2.8-1.965-5-3.2s-3.1-1.498-2-.584M181 236c-.825.533-1.05.969-.5.969s1.675-.436 2.5-.969c.825-.533 1.05-.969.5-.969s-1.675.436-2.5.969m-10.187 3.683c.721.289 1.584.253 1.916-.079.332-.332-.258-.568-1.312-.525-1.165.048-1.402.285-.604.604m-4 1c.721.289 1.584.253 1.916-.079.332-.332-.258-.568-1.312-.525-1.165.048-1.402.285-.604.604m-4 1c.721.289 1.584.253 1.916-.079.332-.332-.258-.568-1.312-.525-1.165.048-1.402.285-.604.604m-5.544 1.01c.973.254 2.323.237 3-.037.677-.274-.119-.481-1.769-.461-1.65.02-2.204.244-1.231.498m-8.019.996c.963.252 2.537.252 3.5 0 .963-.251.175-.457-1.75-.457s-2.713.206-1.75.457M89 245c.825.533 1.95.969 2.5.969s.325-.436-.5-.969c-.825-.533-1.95-.969-2.5-.969s-.325.436.5.969m5 1.831c.825.51 2.625 1.228 4 1.596 1.737.465 2.042.386 1-.258-.825-.51-2.625-1.228-4-1.596-1.737-.465-2.042-.386-1 .258m8.5 3.169c1.1.473 2.675.859 3.5.859.945 0 .761-.317-.5-.859-1.1-.473-2.675-.859-3.5-.859-.945 0-.761.317.5.859m6.313 1.683c.721.289 1.584.253 1.916-.079.332-.332-.258-.568-1.312-.525-1.165.048-1.402.285-.604.604m5 1c.721.289 1.584.253 1.916-.079.332-.332-.258-.568-1.312-.525-1.165.048-1.402.285-.604.604m4.937.979c.688.278 1.813.278 2.5 0 .688-.277.125-.504-1.25-.504s-1.937.227-1.25.504" fill="#1976D2" fill-rule="evenodd"/><path fill-opacity=".143" d="M98.5 4.927C56.192 15.837 22.753 46.789 9.033 87.743c-4.026 12.015-4.001 12.259 1.217 12.249l4.25-.007 2.284-8.199c11.428-41.022 46.747-75.652 88.98-87.242 4.805-1.319 7.611-2.41 6.236-2.425-1.375-.016-7.45 1.248-13.5 2.808m19-1.312c-39.576 7.099-72.529 31.74-91.089 68.114-6.153 12.058-5.502 12.856.855 1.047C42.775 43.964 69.298 23.206 101 15.068c12.18-3.126 38.112-4.798 51.333-3.31 27.299 3.073 52.546 15.697 71.718 35.862 9.032 9.499 12.897 14.919 19.167 26.88 2.596 4.95 4.73 8.55 4.743 8 .013-.55-2.176-5.377-4.864-10.727-17.742-35.305-50.172-60.2-88.912-68.252-9.03-1.877-25.939-1.834-36.685.094m33.25 10.047c.688.278 1.813.278 2.5 0 .688-.277.125-.504-1.25-.504s-1.937.227-1.25.504m11.75 2.739c36.475 11.164 66.629 40.656 77.553 75.849l2.406 7.75h4.271c2.396 0 4.27-.475 4.27-1.082 0-2.12-5.31-16.517-8.261-22.399-11.257-22.437-31.529-42.21-54.404-53.065-8.156-3.871-21.457-7.963-28.879-8.886-4.373-.543-4.015-.328 3.044 1.833m-54 17.255c-28.137 6-52.677 25.428-65.485 51.844-7.082 14.606-7.069 14.5-1.779 14.5h4.371l3.175-7.75c6.763-16.506 16.373-29.4 30.18-40.493 9.364-7.525 22.959-14.679 33.538-17.649 8.254-2.318 5.963-2.577-4-.452m19-.949c-25.444 3.453-49.241 17.204-64.255 37.128-5.192 6.89-14.979 24.764-14.062 25.681.195.196 2.253-3.349 4.571-7.876 10.859-21.207 30.759-36.788 55.231-43.243 8.898-2.347 30.533-3.637 40.408-2.41 19.793 2.459 35.238 9.863 49.966 23.952 7.674 7.34 11.384 12.306 16.854 22.561 4.287 8.036 4.895 8.063 1.356.061-6.043-13.666-19.596-30.169-32.069-39.052-18.026-12.838-40.098-19.232-58-16.802m19.313 10.976c.721.289 1.584.253 1.916-.079.332-.332-.258-.568-1.312-.525-1.165.048-1.402.285-.604.604m10.933 3.214c21.338 7.427 40.156 24.623 49.808 45.513 3.506 7.59 3.507 7.59 7.476 7.59 4.816 0 4.881-.571.999-8.776-10.322-21.819-31.443-39.32-54.602-45.243-11.272-2.883-13.209-2.401-3.681.916M115.5 63.575c-16.278 3.594-32.646 15.023-41.427 28.926C71.833 96.049 70 99.187 70 99.475c0 .289 26.801.525 59.558.525h59.557l-2.807-5.067c-7.087-12.791-22.057-24.853-36.593-29.487-10.471-3.338-24.177-4.088-34.215-1.871M7.241 114.936c-12.799 8.034-7.534 28.14 7.428 28.366 15.135.228 21.654-18.734 9.542-27.753-3.915-2.915-12.792-3.236-16.97-.613M40 125.893c0 10.538-.274 12.998-1.5 13.469-3.011 1.155-1.668 3.638 1.967 3.638h3.467l.283-11.058.283-11.058 7.513 10.808c5.215 7.502 8.198 10.906 9.75 11.128 2.218.316 2.237.209 2.237-12.75 0-11.222.222-13.07 1.573-13.07.96 0 1.442-.682 1.237-1.75-.232-1.201-1.275-1.75-3.324-1.75H60.5l-.5 10.824-.5 10.824-7.819-11.074C46.332 116.498 43.252 113 41.931 113c-1.808 0-1.931.82-1.931 12.893m33.667-12.226c-1.208 1.207-.695 3.333.803 3.333 1.202 0 1.521 2.325 1.75 12.75l.28 12.75h18l.316-2.75c.255-2.215-.085-2.75-1.75-2.75-1.136 0-2.066.45-2.066 1s-2.475 1-5.5 1H80v-9h5.5c4.833 0 5.5-.242 5.5-2s-.667-2-5.5-2H80v-9h5c3.778 0 5 .367 5 1.5 0 1.713 2.553 2.033 3.535.443.359-.581.377-2.156.04-3.5-.595-2.372-.884-2.443-9.927-2.443-5.123 0-9.615.3-9.981.667m27.333 1.27c0 1.167.651 2.063 1.5 2.063 1.225 0 1.501 1.696 1.504 9.25.003 7.397.393 9.889 1.948 12.439 4.436 7.275 17.197 6.058 19.973-1.904.591-1.696 1.075-6.679 1.075-11.074 0-6.277.354-8.25 1.653-9.199 2.081-1.522.941-3.512-2.012-3.512-3.966 0-4.64 1.802-4.656 12.45-.009 5.527-.355 10.584-.771 11.237-2.163 3.402-9.699 3.481-11.867.125-.466-.722-1.072-6.262-1.347-12.312l-.5-11-3.25-.313c-2.718-.262-3.25.024-3.25 1.75M139 126c0 10.889-.244 13-1.5 13-.849 0-1.5.896-1.5 2.063 0 1.726.532 2.012 3.25 1.75l3.25-.313.285-10.844.285-10.843 7.715 11.091c10.428 14.991 11.215 14.89 11.215-1.435 0-10.217.277-12.638 1.5-13.107.825-.317 1.5-1.456 1.5-2.532 0-1.605-.584-1.9-3.25-1.643l-3.25.313-.285 10.834-.284 10.834-4.041-5.834a1751.343 1751.343 0 0 1-7.607-11.084c-2.154-3.171-4.302-5.25-5.425-5.25-1.716 0-1.858.997-1.858 13m33-11c0 1.111.667 2 1.5 2 1.242 0 1.5 1.877 1.5 10.893 0 8.76-.294 11.006-1.5 11.469-.825.316-1.5 1.264-1.5 2.107 0 1.171 1.177 1.531 5 1.531 4.333 0 5-.267 5-2 0-1.111-.667-2-1.5-2-1.242 0-1.5-1.889-1.5-11s.258-11 1.5-11c.833 0 1.5-.889 1.5-2 0-1.733-.667-2-5-2s-5 .267-5 2m23.825.473c-12.173 8.272-6.075 27.85 8.675 27.85 15.109 0 21.022-19.526 8.501-28.073-4.688-3.2-12.284-3.101-17.176.223M230 126c0 10.889-.244 13-1.5 13-.849 0-1.5.896-1.5 2.063 0 1.726.532 2.012 3.25 1.75l3.25-.313.5-10.356.5-10.357 7.385 10.607C252.145 147.13 253 146.946 253 130c0-10.889.244-13 1.5-13 .849 0 1.5-.896 1.5-2.063 0-1.726-.532-2.012-3.25-1.75l-3.25.313-.5 10.637-.5 10.636-7.5-10.856c-10.249-14.836-11-14.694-11 2.083M8.659 119.054c-3.836 3.017-5.251 8.594-3.34 13.166C10.113 143.694 26 140.417 26 127.954c0-8.952-10.454-14.318-17.341-8.9m189.708-.282c-7.082 5.737-5.152 17.813 3.216 20.123 7.536 2.081 13.417-2.826 13.417-11.194 0-4.033-.495-5.35-2.923-7.778-2.342-2.341-3.784-2.919-7.25-2.901-2.581.014-5.188.72-6.46 1.75M6 157.372c0 .755 1.142 4.872 2.539 9.149 12.552 38.454 42.456 68.852 80.057 81.381 9.413 3.136 25.185 6.65 26.035 5.801.277-.278-1.392-.825-3.708-1.216-7.129-1.204-20.286-6.064-29.996-11.079-29.943-15.465-52.807-42.454-63.357-74.786-1.413-4.332-2.57-8.495-2.57-9.25 0-.959-1.353-1.372-4.5-1.372-3.147 0-4.5.413-4.5 1.372m31-1.03c0 .248 1.306 3.659 2.901 7.58 7.234 17.775 19.574 33.075 35.48 43.988 10.551 7.24 27.92 13.932 40.119 15.458 4.319.541 3.874.286-3.274-1.871-29.382-8.865-53.9-31.516-63.809-58.949l-2.184-6.048-4.617-.305c-2.539-.167-4.616-.102-4.616.147m35.604 4.671c6.248 11.48 19.783 22.935 33.396 28.265 21.914 8.58 47.231 4.262 65.846-11.23 5.419-4.509 12.922-13.761 16.056-19.798l1.168-2.25H69.875l2.729 5.013m135.652.737c-2.978 7.665-9.28 17.134-16.639 25-9.863 10.544-21.735 18.087-36.117 22.95-6.901 2.333-6.93 2.357-2.069 1.745 16.306-2.055 35.641-12.249 47.674-25.134 7.649-8.191 17.895-24.99 17.895-29.34 0-.534-1.915-.971-4.255-.971-4.255 0-4.256.001-6.489 5.75m31.819 1.5c-9.327 29.168-30.323 53.927-57.594 67.916-9.218 4.729-23.111 9.834-26.761 9.834-1.13 0-1.774.28-1.432.622.968.967 13.331-1.634 22.557-4.745 32.874-11.087 59.668-37.554 71.071-70.207 1.696-4.856 3.084-9.244 3.084-9.75 0-.506-1.936-.92-4.303-.92h-4.303l-2.319 7.25m-23.483 3.528c-11.142 22.796-34.02 40.388-59.568 45.804-8.839 1.874-31.546 1.804-42.643-.131-25.334-4.418-47.88-20.671-60.273-43.451-5.188-9.537-5.33-8.382-.217 1.772 15.883 31.549 47.794 52.094 81.609 52.542 25.69.34 53.693-14.529 71.214-37.814 4.293-5.705 13.823-23.296 13.043-24.076-.202-.203-1.626 2.207-3.165 5.354M20.031 169.5c0 .55.436 1.675.969 2.5.533.825.969 1.05.969.5s-.436-1.675-.969-2.5c-.533-.825-.969-1.05-.969-.5m223.02 12.241c-17.648 34.465-51.28 57.463-91.209 62.37-12.962 1.593-37.639-.096-50.842-3.481-32.122-8.233-59.26-29.699-74.721-59.103-2.321-4.415-4.234-7.666-4.25-7.225-.049 1.353 7.663 16.312 11.562 22.425 25.947 40.689 77.736 64.17 121.752 55.204 38.205-7.783 69.865-32.509 88.091-68.801 2.58-5.136 4.542-9.488 4.359-9.67-.182-.183-2.316 3.544-4.742 8.281m-92.238 60.942c.721.289 1.584.253 1.916-.079.332-.332-.258-.568-1.312-.525-1.165.048-1.402.285-.604.604" fill="#1976D2" fill-rule="evenodd"/><path fill-opacity=".586" d="M7.673 115.108c-2.604 1.374-4.435 3.357-5.728 6.206-2.397 5.278-2.393 8.103.019 13.415 6.497 14.314 28.019 9.069 28.032-6.831.01-11.454-11.911-18.284-22.323-12.79m55.077-1.292-2.75.317-.032 11.183c-.026 9.057-.263 10.862-1.25 9.491-.67-.931-4.143-5.98-7.718-11.221-4.768-6.989-7.071-9.535-8.643-9.557-2.073-.028-2.149.39-2.294 12.721-.083 7.07-.576 12.899-1.106 13.083-.527.184-.957 1.001-.957 1.817 0 1.028.844 1.386 2.75 1.166l2.75-.316.284-11.374.284-11.374 8.1 11.624C56.623 137.769 60.883 143 61.634 143c1.081 0 1.366-2.593 1.366-12.45 0-10.382.266-12.6 1.603-13.348 2.552-1.428 1.284-3.747-1.853-3.386m11.248 1.434c.001.963.565 1.638 1.252 1.5.937-.187 1.298 2.815 1.443 12.004.107 6.74.471 12.702.809 13.25.886 1.432 14.836 1.258 16.298-.204 1.933-1.933 1.455-4.8-.8-4.8-1.141 0-2 .667-2 1.552 0 1.245-1.042 1.493-5.25 1.25l-5.25-.302v-10l5-.086c3.445-.06 5-.5 5-1.414 0-.914-1.555-1.354-5-1.414l-5-.086-.305-4.75-.305-4.75h5.055c2.78 0 5.055.45 5.055 1s.675 1 1.5 1c.922 0 1.5-.937 1.5-2.431 0-2.383-.192-2.438-9.502-2.75-8.505-.286-9.502-.135-9.5 1.431m28.002-.077c0 1.005.408 1.827.906 1.827.499 0 1.061 4.538 1.25 10.084.339 9.947.388 10.123 3.61 13 4.639 4.143 11.164 4.14 15.311-.007 2.844-2.844 2.923-3.196 2.923-13 0-8.291.266-10.077 1.5-10.077.825 0 1.5-.822 1.5-1.827 0-1.461-.601-1.738-3-1.386l-3 .44v10.432c0 9.743-.162 10.594-2.455 12.886-2.999 3-6.415 3.132-9.91.382-2.556-2.01-2.635-2.395-2.635-12.886v-10.814l-3-.44c-2.399-.352-3-.075-3 1.386m71 .07c0 .966.563 1.645 1.25 1.507.928-.186 1.323 2.655 1.533 11.019.235 9.379.026 11.367-1.25 11.857-.843.323-1.533 1.215-1.533 1.981 0 .984 1.32 1.393 4.5 1.393 3.333 0 4.5-.389 4.5-1.5 0-.825-.675-1.5-1.5-1.5-1.246 0-1.5-1.944-1.5-11.5 0-9.556.254-11.5 1.5-11.5.825 0 1.5-.63 1.5-1.399 0-.939-1.481-1.517-4.5-1.758-3.762-.299-4.5-.069-4.5 1.4m25.5-.886c-1.65.763-4.125 2.607-5.5 4.096-2.164 2.344-2.5 3.637-2.5 9.611 0 6.611.154 7.057 3.654 10.557 2.976 2.976 4.574 3.743 8.61 4.13 9.77.939 16.467-5.125 16.467-14.913 0-5.389-1.707-8.611-6.429-12.136-3.307-2.469-10.425-3.139-14.302-1.345m31.5 11.841c0 10.513-.274 12.97-1.5 13.44-2.724 1.046-1.749 3.523 1.25 3.178l2.75-.316.5-11.301.5-11.302 8 11.524c10.783 15.532 11.5 15.45 11.5-1.314 0-10.538.274-12.998 1.5-13.469 2.787-1.069 1.571-2.772-1.75-2.451l-3.25.313v10.751c0 9.956-.528 12.725-1.795 9.422-1.382-3.601-14.816-21.34-16.161-21.34-1.312 0-1.544 1.933-1.544 12.865M139 127c0 10.889-.244 13-1.5 13-.825 0-1.5.704-1.5 1.563 0 1.162.836 1.483 3.25 1.25l3.25-.313v-10.751c0-5.914.313-10.639.695-10.5.382.138 3.992 4.972 8.024 10.742 10.183 14.576 10.781 14.47 10.781-1.918 0-10.954.243-13.073 1.5-13.073.825 0 1.5-.675 1.5-1.5 0-.996-.996-1.5-2.967-1.5h-2.967l-.283 11.25-.283 11.25-7.781-11.25c-5.457-7.891-8.368-11.25-9.75-11.25-1.858 0-1.969.734-1.969 13m-128.551-9.449c-6.18 3.05-8.22 10.847-4.44 16.963C12.042 144.276 26 139.83 26 128.146c0-5.593-1.982-8.823-6.599-10.752-4.158-1.737-5.149-1.72-8.952.157m188.741.423c-4.525 2.829-6.735 8.263-5.305 13.038 1.456 4.858 5.083 8.04 9.904 8.687 3.531.473 4.426.13 7.848-3.006 3.508-3.214 3.863-4.004 3.863-8.597 0-4.304-.454-5.512-3.05-8.107-4.029-4.029-8.863-4.764-13.26-2.015" fill="#1976D2" fill-rule="evenodd"/></svg>